<svg xmlns="http://www.w3.org/2000/svg" version="1.1" xmlns:xlink="http://www.w3.org/1999/xlink" width="500" height="500"><svg width="500" height="500" viewBox="0 0 500 500" fill="none" xmlns="http://www.w3.org/2000/svg">
<rect width="500" height="500" rx="72" fill="white"></rect>
<g clip-path="url(#clip0_15388_16441)">
<path d="M236.212 189.586L247.726 191.902C247.726 197.694 247.726 203.485 247.726 210.435V212.751V356.379L199.366 386.494L192.457 381.861V365.645L199.366 370.278L236.212 347.113V212.751V210.435C236.355 202.916 236.212 196.535 236.212 189.586ZM395.109 169.895L398.564 175.686L351.355 198.852C349.062 199.184 346.514 198.553 344.446 198.852V187.269C344.382 187.275 344.511 187.263 344.446 187.269H346.749L380.141 171.053C359.415 138.621 332.932 120.088 314.509 115.455V101.556C347.857 110.586 373.232 136.304 395.109 169.895Z" fill="black"></path>
<path d="M144.094 393.444H130.276V242.867C130.276 176.321 173.681 124.722 243.117 124.722C291.801 124.722 329.495 150.045 351.352 196.536V198.852L289.174 228.968C278.556 205.478 264.629 196.536 243.117 196.536C215.809 196.536 199.907 211.603 199.362 240.55V242.867V386.495L187.848 393.444V377.228V242.867V240.55C188.53 204.28 208.809 182.636 243.117 182.636C265.569 182.636 281.723 191.546 293.78 210.435L332.929 191.902C312.939 156.395 282.335 139.024 243.117 138.621C184.021 138.621 144.869 179.462 144.094 240.55V242.867V393.444Z" fill="black"></path>
</g>
<defs>
<clipPath id="SvgjsClipPath1009">
<rect width="269.435" height="291.888" fill="white" transform="translate(130.283 101.556)"></rect>
</clipPath>
</defs>
</svg><style>@media (prefers-color-scheme: light) { :root { filter: none; } }
@media (prefers-color-scheme: dark) { :root { filter: none; } }
</style></svg>